<svg width="400" height="400" viewBox="0 0 400 400" fill="none" xmlns="http://www.w3.org/2000/svg">
<circle cx="200" cy="200" r="200" fill="#313C74"/>
<path d="M199.526 111C196.298 111 193.11 111.559 190.081 112.638L78.3024 153.105C74.5167 154.503 72.0061 158.098 72.0061 162.133C72.0061 166.168 74.5167 169.763 78.3024 171.161L101.376 179.51C94.8401 189.816 91.1341 202 91.1341 214.824V226.049C91.1341 237.394 86.8303 249.099 82.2476 258.326C79.6573 263.52 76.7084 268.633 73.2813 273.347C72.0061 275.064 71.6475 277.302 72.3648 279.339C73.0821 281.376 74.7558 282.894 76.828 283.414L102.332 289.805C104.006 290.245 105.799 289.925 107.273 289.006C108.748 288.087 109.784 286.569 110.103 284.852C113.53 267.754 111.816 252.414 109.266 241.429C107.991 235.756 106.277 229.964 103.886 224.651V214.824C103.886 202.759 107.951 191.374 115.004 182.266C120.145 176.075 126.8 171.081 134.61 168.005L197.175 143.357C200.442 142.079 204.149 143.677 205.424 146.953C206.699 150.228 205.105 153.944 201.837 155.222L139.273 179.87C134.331 181.827 129.988 184.823 126.441 188.498L190.042 211.508C193.07 212.587 196.258 213.146 199.486 213.146C202.714 213.146 205.902 212.587 208.931 211.508L320.749 171.161C324.535 169.803 327.046 166.168 327.046 162.133C327.046 158.098 324.535 154.503 320.749 153.105L208.97 112.638C205.942 111.559 202.754 111 199.526 111ZM123.014 261.203C123.014 275.304 157.285 289.965 199.526 289.965C241.767 289.965 276.038 275.304 276.038 261.203L269.941 203.119L213.274 223.652C208.851 225.25 204.188 226.049 199.526 226.049C194.863 226.049 190.161 225.25 185.778 223.652L129.111 203.119L123.014 261.203Z" fill="white"/>
<path d="M136.346 249.62C136.346 233.807 149.179 220.974 164.993 220.974C172.594 220.974 179.879 223.994 185.249 229.364L199.523 243.619L213.777 229.364C219.167 223.994 226.452 220.974 234.053 220.974C249.867 220.974 262.699 233.807 262.699 249.62V255.484C262.699 271.318 249.867 284.15 234.053 284.15C226.452 284.15 219.167 281.13 213.797 275.76L199.523 261.505L185.269 275.76C179.879 281.13 172.594 284.15 164.993 284.15C149.179 284.15 136.346 271.318 136.346 255.504V249.62ZM190.579 252.562L176.325 238.308C173.324 235.307 169.238 233.609 164.993 233.609C156.148 233.609 148.982 240.776 148.982 249.62V255.484C148.982 264.329 156.148 271.495 164.993 271.495C169.238 271.495 173.324 269.817 176.325 266.797L190.579 252.562ZM208.447 252.562L222.701 266.816C225.702 269.817 229.788 271.515 234.033 271.515C242.878 271.515 250.044 264.348 250.044 255.504V249.62C250.044 240.776 242.878 233.609 234.033 233.609C229.788 233.609 225.702 235.287 222.701 238.308L208.466 252.562H208.447Z" fill="#313C74"/>
<path d="M234.49 239.851C234.49 238.582 233.465 237.558 232.197 237.558C230.929 237.558 229.904 238.582 229.904 239.851V250.17H219.584C218.316 250.17 217.291 251.195 217.291 252.463C217.291 253.732 218.316 254.757 219.584 254.757H229.904V265.076C229.904 266.344 230.929 267.369 232.197 267.369C233.465 267.369 234.49 266.344 234.49 265.076V254.757H244.809C246.078 254.757 247.103 253.732 247.103 252.463C247.103 251.195 246.078 250.17 244.809 250.17H234.49V239.851Z" fill="#313C74"/>
</svg>
