<svg width="400" height="400" viewBox="0 0 400 400" fill="none" xmlns="http://www.w3.org/2000/svg">
<circle cx="200" cy="200" r="200" fill="#313C74"/>
<path d="M94.5483 135.707C89.8172 130.964 89.8172 123.3 94.5483 118.557C99.2794 113.814 106.963 113.814 111.694 118.557L184.364 191.406C189.095 196.149 189.095 203.851 184.364 208.594L111.694 281.443C106.963 286.186 99.2794 286.186 94.5483 281.443C89.8172 276.7 89.8172 268.998 94.5483 264.255L158.626 199.981L94.5483 135.707ZM187.884 260.689H296.888C303.588 260.689 309 266.114 309 272.83C309 279.546 303.588 284.972 296.888 284.972H187.884C181.184 284.972 175.772 279.546 175.772 272.83C175.772 266.114 181.184 260.689 187.884 260.689Z" fill="white"/>
</svg>
